<svg width="750" height="750" viewBox="0 0 750 750" fill="none" xmlns="http://www.w3.org/2000/svg">
<rect x="175.234" y="2.45654" width="235.373" height="122.636" fill="#06070E"/>
<rect width="157.641" height="376.558" transform="matrix(0.995976 0.0896167 -0.0847614 0.996401 177.104 2.45654)" fill="#06070E"/>
<rect y="367.164" width="166.939" height="157.827" fill="#06070E"/>
<rect x="125" y="367" width="432" height="239" fill="#06070E"/>
<rect x="497" y="338" width="253" height="257" fill="#06070E"/>
<path d="M363.571 397.149L410.288 2.28185L750 339.421L363.571 397.149Z" fill="#06070E"/>
<rect x="274.322" y="55.7788" width="173.16" height="410.563" fill="#06070E"/>
<path d="M254.041 574.044H437.57L425.646 750H240.043L254.041 574.044Z" fill="#06070E"/>
<path d="M254.041 574.044H437.57L425.646 750H240.043L254.041 574.044Z" fill="#06070E"/>
<path d="M585.528 574.044H486.298L492.745 750H593.097L585.528 574.044Z" fill="#06070E"/>
<path d="M585.528 574.044H486.298L492.745 750H593.097L585.528 574.044Z" fill="#06070E"/>
<path d="M353.993 137.459C305.609 148.999 267.587 163.775 221.791 209.441C267.537 257.727 301.106 267.66 373.694 257.962C426.167 242.648 455.384 229.174 507.453 204.109C439.93 154.36 394.432 145.991 353.993 137.459Z" fill="#FFFBFE"/>
<path d="M306.295 218.763C301.111 198.501 306.888 181.904 321.848 170.519C336.809 159.133 360.867 162.002 370.064 174.784C378.359 198.245 370.763 207.377 355.802 218.763C338.438 230.237 315.492 231.545 306.295 218.763Z" fill="#06070E"/>
<path d="M339.95 198.129C340.507 200.717 338.178 203.449 334.748 204.231C331.317 205.013 328.084 203.55 327.526 200.962C326.968 198.375 329.297 195.643 332.728 194.861C336.159 194.079 339.392 195.542 339.95 198.129Z" fill="white"/>
</svg>
